<?xml version="1.0" encoding="utf-8"?>
<!-- Generator: Adobe Illustrator 16.0.0, SVG Export Plug-In . SVG Version: 6.00 Build 0)  -->
<!DOCTYPE svg PUBLIC "-//W3C//DTD SVG 1.1//EN" "http://www.w3.org/Graphics/SVG/1.1/DTD/svg11.dtd">
<svg version="1.1" id="Layer_1" xmlns="http://www.w3.org/2000/svg" xmlns:xlink="http://www.w3.org/1999/xlink" x="0px" y="0px"
	 width="800px" height="300px" viewBox="-162.557 -65.041 800 300" enable-background="new -162.557 -65.041 800 300"
	 xml:space="preserve">
<g>
	<g>
		<g>
			<path fill="#C60352" d="M6.082-16.08C19.538-26.77,31.628-45.564,46.221-57.622c12.559,7.02,23.973,15.243,34.3,24.619
				C59.778-8.612,37.397,13.226,14.111,37.774C4.927,47.454-4.499,66.698-23.84,60.083c-7.38-2.526-17.021-15.634-23.354-22.309
				c-22.144-23.343-45.98-48.343-65.679-70.778c10.086-9.626,21.768-17.57,34.299-24.619c14.492,13.443,26.518,29.485,41.596,42.313
				c1.328-11.239-1.776-20.127,0-30.004c4.107-22.82,39.208-22.41,43.059,2.309C7.386-34.641,5.165-28.186,6.082-16.08z"/>
		</g>
		<path fill="#092A5B" d="M301.411,88.653c5.451,6.71,12.514,11.77,18.78,17.646c-6.039,6.827-12.945,12.759-19.3,19.255
			c-7.154-5.68-13.5-12.187-20.343-18.185c-20.758,14.508-57.089,13.43-77.72,5.347c-21.922-8.585-37.353-27.609-43.815-51.34
			c-15.569-57.182,12.843-111.296,68.853-115.52c54.848-4.137,88.692,29.019,91.283,79.688
			C320.436,50.774,314.111,73.009,301.411,88.653z M241.948-24.194c-34.292-2.519-48.801,22.195-50.073,51.876
			c-1.238,28.896,10.683,58.034,38.599,60.971c9.95,1.043,18.031-0.673,25.036-3.746c-1.011-2.482-4.58-4.964-7.823-8.022
			c-1.689-1.59-8.95-6.587-8.866-8.556c0.054-1.339,3.402-3.542,4.694-4.814c1.785-1.759,4.104-3.234,5.215-4.278
			c1.898-1.783,7.302-9.719,9.389-9.628c0.546,0.025,2.776,3.459,3.654,4.278c5.044,4.725,8.398,7.053,13.039,11.23
			C290.928,27.651,280.491-21.363,241.948-24.194z"/>
		<path fill="#092A5B" d="M370.264,113.663V0.408c19.28,30.535,40.387,67.271,59.987,100.01c2.392,3.998,5.736,10.958,8.357,13.244
			h36.5V-49.329h-33.904c-1.217,36.19-0.174,74.694-0.521,111.775c-22.74-36.941-43.822-75.581-67.289-111.775h-36.513
			c-0.655,0.218-1.065,0.688-1.042,1.605v161.391h34.424V113.663z"/>
		<path fill="#092A5B" d="M492.32-49.329c48.193,3.307,115.591-11.612,132.488,23.53c9.021,18.757,1.675,47.202-16.691,51.877
			c9.349,4.646,16.992,9.418,21.386,18.184c6.654,13.266,4.869,32.342-0.522,43.318c-18.121,36.9-85.844,24.682-137.182,26.742
			c0-54.017,0-108.032,0-162.048C491.754-48.484,491.714-49.239,492.32-49.329z M526.748-18.311c0,11.052,0,22.105,0,33.159
			c18.166-2.595,47.31,4.861,59.982-3.743c5.24-3.557,8.591-12.611,5.217-20.857c-6.984-17.077-42.395-7.522-64.679-10.161
			C526.66-19.826,526.701-19.07,526.748-18.311z M526.748,44.262c0,13.549,0,27.096,0,40.645
			c21.373-2.093,55.354,5.535,65.723-8.022c3.576-4.676,5.915-14.947,2.608-22.996c-7.534-18.33-43.708-8.735-67.81-11.229
			C526.66,42.746,526.701,43.502,526.748,44.262z"/>
		<path fill="#092A5B" d="M-144.983,144.707c12.246-15.556,27.929-27.487,40.866-42.312c-17.758,0-35.516,0-53.274,0
			c-2.864-13.474-2.509-30.968-0.731-45.392c17.759,0,35.518,0,53.276,0c-10.765-14.296-27.548-28.911-40.137-43.85
			c5.839-14.358,14.176-26.083,23.354-36.927c19.938,20.75,43.962,45.574,67.14,70.008c10.172,10.722,25.258,20.208,20.434,39.236
			c-2.224,8.766-13.697,18.285-20.434,25.386c-18.808,19.827-35.427,37.347-55.463,58.47c-2.01,2.119-10.283,11.521-10.947,11.538
			c-3.337,0.086-10.905-13.472-13.137-16.925C-138.593,156.897-142.009,150.712-144.983,144.707z"/>
		<path fill="#092A5B" d="M112.631,12.386c-12.469,16.09-27.792,29.169-40.868,44.619c17.759,0,35.514,0,53.274,0
			c2.982,14.028,2.125,31.056,0,45.39c-17.515,0-35.029,0-52.543,0c9.929,13.896,29.834,28.045,39.409,42.313
			c-5.498,14.205-14.25,24.985-22.623,36.157c-20.81-20.814-43.537-45.894-65.683-69.237c-9.459-9.972-29.03-21.812-21.894-41.542
			c2.594-7.178,13.694-16.744,20.433-23.849C44.15,23.031,68.623-1.646,88.548-23.771C98.736-13.995,105.641-0.762,112.631,12.386z"
			/>
		<path fill="#092A5B" d="M80.521,190.096c-10.764,8.656-21.104,17.758-34.3,23.848c-15.08-12.311-25.774-29.247-40.139-42.311
			c0,18.719,0,37.438,0,56.157c-13.51,1.726-29.681,2.28-43.057,0c0-18.461,0-36.928,0-55.389
			c-13.441,10.708-28.158,30.836-41.597,41.542c-13.399-5.877-23.746-14.969-34.3-23.848c18.935-22.48,42.542-45.616,64.222-68.467
			c9.309-9.817,21.781-32.328,40.868-23.851c7.339,3.261,16.588,15.178,23.355,22.31C37.794,143.518,59.662,166.415,80.521,190.096z
			"/>
	</g>
</g>
<g>
	<polygon fill="#25305B" points="222.714,230.537 235.622,230.537 235.622,172.891 222.714,172.891 	"/>
	<polygon fill="#25305B" points="241.155,230.537 253.139,230.537 252.219,191.042 253.139,191.042 269.736,230.537 
		286.332,230.537 286.332,172.891 274.344,172.891 274.344,212.387 274.344,212.387 257.751,172.891 241.155,172.891 	"/>
	<polygon fill="#25305B" points="175.692,230.537 193.211,230.537 193.211,199.58 218.105,199.58 218.105,184.633 193.211,184.633 
		193.211,168.625 234.702,168.625 234.702,153.679 175.692,153.679 	"/>
	<path fill="#25305B" d="M289.098,230.537h12.91l4.611-12.81h18.438l3.688,12.81h14.752l-19.361-57.646h-16.597L289.098,230.537
		L289.098,230.537z M322.29,207.05h-12.909l6.456-22.417l0,0L322.29,207.05L322.29,207.05z"/>
	<polygon fill="#25305B" points="346.26,230.537 358.25,230.537 357.328,191.042 357.328,191.042 374.844,230.537 391.441,230.537 
		391.441,172.891 379.454,172.891 379.454,212.387 379.454,212.387 362.859,172.891 346.26,172.891 	"/>
	<path fill="#25305B" d="M396.051,229.468c3.688,1.068,10.145,2.133,14.754,2.133c11.063,0,22.125-4.268,22.125-19.214
		c0-20.279-23.971-14.939-23.971-23.483c0-5.337,5.531-5.337,9.219-5.337c3.689,0,7.378,0,11.064,2.132l0.924-11.738
		c-3.687-1.072-8.297-2.137-12.908-2.137c-10.144,0-22.128,4.272-22.128,18.151c0,20.28,23.972,13.874,23.972,24.551
		c0,4.267-4.613,5.333-8.297,5.333c-5.533,0-10.143-1.066-13.831-3.2L396.051,229.468L396.051,229.468z"/>
	<path fill="#25305B" d="M436.617,230.537H456.9c9.222,0,19.364-3.2,19.364-17.08c0-6.406-2.768-10.673-9.219-12.809l0,0
		c5.529-2.135,8.291-6.405,8.291-12.81c0-10.671-6.454-14.947-15.668-14.947h-23.052V230.537L436.617,230.537z M449.525,205.985
		h3.688c4.608,0,10.141,1.065,10.141,6.402c0,6.405-4.607,7.472-10.141,7.472h-3.688V205.985L449.525,205.985z M449.525,183.567
		h3.688c4.608,0,9.221,1.066,9.221,6.409c0,4.267-4.612,5.336-9.221,5.336h-3.688V183.567L449.525,183.567z"/>
	<path fill="#25305B" d="M476.264,230.537h13.827l3.688-12.81h18.438l3.69,12.81h14.751l-19.364-57.646h-15.672L476.264,230.537
		L476.264,230.537z M509.454,207.05H497.47l6.454-22.417l0,0L509.454,207.05L509.454,207.05z"/>
	<polygon fill="#25305B" points="533.427,230.537 545.414,230.537 545.414,191.042 545.414,191.042 562.929,230.537 
		579.526,230.537 579.526,172.891 567.541,172.891 567.541,212.387 567.541,212.387 550.022,172.891 533.427,172.891 	"/>
	<polygon fill="#25305B" points="584.136,230.537 597.965,230.537 597.965,203.849 597.965,203.849 613.639,230.537 
		630.235,230.537 609.954,199.58 628.391,172.891 612.717,172.891 597.965,196.377 597.965,196.377 597.965,172.891 
		584.136,172.891 	"/>
</g>
</svg>
