<svg width="147" height="50" viewBox="0 0 147 50" fill="none" xmlns="http://www.w3.org/2000/svg">
<path d="M86.1128 49.7741C85.742 49.7418 85.3569 49.7167 84.9576 49.706C84.5583 49.6952 84.2302 49.5339 83.97 49.2148C83.9307 48.9387 83.9307 48.72 83.97 48.5622C84.0092 48.4009 84.0698 48.1893 84.1661 47.9312C84.4798 47.1101 84.7544 46.3786 84.9861 45.7332C85.2179 45.0878 85.471 44.3815 85.7491 43.6178C85.824 43.3596 85.9203 43.1409 86.0379 42.9652C86.1627 42.7895 86.1841 42.5385 86.1092 42.2194C86.0201 41.7928 85.8703 41.4234 85.6778 41.1151C85.4817 40.8032 85.282 40.4661 85.0788 40.0932C85.0396 40.0179 84.954 39.8458 84.8185 39.5769C84.6759 39.3044 84.5226 39.0104 84.3586 38.6949C84.191 38.3793 84.0341 38.0782 83.8844 37.8021C83.7382 37.5188 83.6455 37.3539 83.6098 37.2965C83.4958 37.1101 83.3282 36.8268 83.1071 36.4575C82.8825 36.0846 82.6329 35.6615 82.3441 35.1882C82.0589 34.7114 81.7558 34.213 81.4421 33.6895C81.1247 33.1696 80.8252 32.6712 80.5364 32.2087C80.2512 31.739 79.9909 31.3195 79.7592 30.9466C79.5274 30.5737 79.3563 30.294 79.2457 30.1076C79.1316 29.9964 79.0889 29.8817 79.1067 29.7741C79.1209 29.6594 79.1673 29.5554 79.2457 29.455C79.317 29.351 79.4133 29.265 79.5203 29.1861C79.6344 29.1108 79.7235 29.0463 79.8019 28.9889C79.8982 28.971 80.0622 28.9279 80.3011 28.8634C80.5436 28.7953 80.8003 28.7236 81.0712 28.6518C81.3387 28.5766 81.5882 28.5084 81.82 28.4546C82.0517 28.3973 82.2158 28.3578 82.3049 28.3399C82.5652 28.2682 82.8682 28.2108 83.2105 28.1714C83.5528 28.1319 83.8095 28.2467 83.9735 28.5048L88.2057 35.3066L88.5373 34.0229L90.5696 28.3399C90.6587 28.0782 90.8121 27.8845 91.026 27.7662C91.2399 27.6479 91.4788 27.5654 91.7391 27.526C91.9958 27.4866 92.2668 27.4722 92.5449 27.483C92.8194 27.4937 93.0619 27.4973 93.2651 27.4973C93.3542 27.4973 93.5361 27.4937 93.7928 27.483C94.0531 27.4722 94.324 27.4686 94.5986 27.4686C94.8731 27.4686 95.1441 27.4722 95.4044 27.483C95.6646 27.4937 95.8429 27.4973 95.932 27.4973C96.0461 27.5368 96.1353 27.5834 96.2137 27.6407C96.2886 27.673 96.3528 27.7124 96.4098 27.7519C96.4669 27.7913 96.4954 27.8272 96.4954 27.863V28.5084L95.5755 31.6995L92.987 38.5837C92.9549 38.6375 92.9014 38.7451 92.8337 38.9028C92.7659 39.0606 92.6946 39.2219 92.609 39.394C92.527 39.5626 92.4486 39.7203 92.3702 39.8673C92.2989 40.0143 92.2525 40.1219 92.2311 40.1793C92.1206 40.4195 92.035 40.6705 91.978 40.9322C91.9245 41.194 91.8674 41.4593 91.8104 41.7282C91.7533 41.9971 91.682 42.2517 91.5858 42.4955C91.4966 42.7393 91.3611 42.9652 91.1971 43.1696C91.1793 43.2234 91.1436 43.3274 91.0866 43.4744C91.0296 43.6214 90.9725 43.7791 90.919 43.9512C90.862 44.1198 90.8049 44.2775 90.7514 44.4245C90.6944 44.5715 90.6552 44.6791 90.6374 44.7365C90.6374 44.7759 90.6267 44.8835 90.6088 45.0699C90.591 45.2564 90.5696 45.3711 90.5553 45.4034C90.5375 45.4428 90.4876 45.5504 90.4127 45.7297C90.3414 45.9053 90.2951 46.0129 90.2737 46.0488C90.2345 46.1635 90.1631 46.3679 90.0491 46.6798C89.9385 46.9846 89.8244 47.318 89.7175 47.673C89.6034 48.028 89.4928 48.3614 89.3787 48.6662C89.2682 48.971 89.1933 49.1897 89.1613 49.3259C89.0079 49.5841 88.8083 49.7598 88.5623 49.8566C88.3091 49.9534 88.0381 49.9964 87.7565 49.9964C87.4748 49.9964 87.1824 49.9677 86.8936 49.9139C86.6084 49.8566 86.3446 49.81 86.1021 49.7705" fill="#8BBF36"/>
<path d="M55.9954 22.682C55.81 22.4238 55.6567 22.1549 55.5498 21.886C55.4392 21.6171 55.3073 21.3517 55.1611 21.09C54.8081 20.4589 54.5051 19.8673 54.2591 19.3152C54.0059 18.7666 53.7242 18.1463 53.4105 17.4579C53.0397 16.6189 52.6546 15.8265 52.2553 15.0807C51.8559 14.3313 51.4709 13.5138 51.1001 12.6174C51.0609 12.5421 50.986 12.3557 50.8754 12.0581C50.7614 11.7569 50.6473 11.4414 50.5225 11.1079C50.4048 10.7673 50.2907 10.4589 50.1766 10.1685C50.0661 9.88167 50.0019 9.7024 49.9805 9.62351C49.9235 9.53388 49.8379 9.3546 49.7202 9.1072C49.5954 8.85263 49.4671 8.5873 49.3245 8.31122C49.1854 8.02796 49.0571 7.76622 48.9358 7.52957C48.8182 7.28576 48.7326 7.11724 48.6756 7.02402C48.6363 6.66905 48.7041 6.43241 48.8717 6.31408C49.0392 6.18859 49.2817 6.1133 49.5919 6.07385C50.223 6.03441 50.8647 6.00573 51.5101 5.9878C52.159 5.96987 52.7937 5.96987 53.4034 5.9878C53.628 6.00573 53.8276 6.09178 54.0023 6.24237C54.1771 6.38938 54.3304 6.56148 54.4623 6.75869C54.5906 6.95589 54.7047 7.16027 54.8081 7.3754C54.908 7.59053 54.9971 7.78056 55.0684 7.94908C55.1433 8.13911 55.2859 8.46539 55.4998 8.93151C55.7138 9.39404 55.942 9.89243 56.1844 10.4123C56.4269 10.9322 56.6443 11.4342 56.8476 11.9111C57.0508 12.3844 57.2041 12.7178 57.2933 12.9043L57.6534 13.4636C57.7496 13.2772 57.8423 13.0764 57.9493 12.8612C58.0491 12.6461 58.1383 12.4346 58.2167 12.2302L60.9122 7.02402C61.0405 6.66905 61.1653 6.41448 61.2723 6.25672C61.3864 6.09895 61.5148 5.99497 61.6609 5.95195C61.8071 5.90534 61.9997 5.89458 62.2314 5.92326C62.4632 5.95195 62.7698 5.96987 63.137 5.99139C63.2476 5.99139 63.4508 5.99497 63.7503 6.00573C64.0462 6.01649 64.3635 6.02366 64.6951 6.03441C65.0267 6.04517 65.3512 6.05234 65.6542 6.0631C65.9573 6.07385 66.1677 6.07744 66.2818 6.07744C66.485 6.13481 66.6276 6.23162 66.7132 6.36787C66.7952 6.51129 66.8415 6.66546 66.8522 6.8304C66.8629 6.99892 66.8415 7.17461 66.7952 7.36105C66.7488 7.55109 66.7096 7.71961 66.6704 7.86661C66.2033 9.37611 65.6578 10.8569 65.0267 12.3019C64.3956 13.7433 63.7004 15.156 62.9409 16.5364C62.8661 16.8555 62.7306 17.1854 62.538 17.5296C62.3419 17.8774 62.1708 18.1965 62.021 18.4977C62.0032 18.5299 61.9676 18.6124 61.9105 18.7307C61.8535 18.8562 61.7964 18.9889 61.7429 19.1359C61.6859 19.2829 61.6288 19.4263 61.5754 19.5554C61.5183 19.6845 61.4791 19.7598 61.4613 19.7813C61.4042 19.8924 61.308 20.086 61.1725 20.355C61.0299 20.6275 60.8837 20.9071 60.7268 21.2083C60.5699 21.5059 60.4166 21.7856 60.2811 22.0473C60.1421 22.3055 60.0422 22.4812 59.9923 22.578C59.9745 22.6174 59.946 22.6604 59.9067 22.7035C59.8675 22.7501 59.8319 22.7752 59.7962 22.7752C59.3684 22.872 58.9369 22.872 58.4984 22.7752C58.0598 22.6784 57.6284 22.6569 57.2077 22.6891C57.0544 22.7071 56.8511 22.7465 56.5944 22.8039C56.3342 22.8612 56.1274 22.8218 55.9812 22.6891" fill="#21A8E1"/>
<path d="M70.4961 5.58981C69.9399 5.4428 69.4942 5.20616 69.1626 4.89422C68.8239 4.57511 68.5922 4.2058 68.4495 3.7863C68.3105 3.37038 68.282 2.92219 68.3675 2.44531C68.4495 1.97203 68.6278 1.49874 68.9095 1.03262C69.1912 0.57009 69.5727 0.265321 70.0647 0.125486C70.5603 -0.0143493 71.0523 -0.0322769 71.5551 0.0681175C72.0542 0.172097 72.5177 0.383643 72.9456 0.71351C73.3699 1.03979 73.6658 1.42344 73.8334 1.87522C74.058 2.45248 74.1186 3.00824 74.0152 3.54248C73.9154 4.07314 73.705 4.52133 73.3877 4.88346C73.0739 5.2456 72.6603 5.50017 72.154 5.63642C71.6406 5.77626 71.0915 5.76191 70.4961 5.5934M69.2696 22.2983C69.1412 22.2087 69.0557 22.0868 69.0165 21.9505C68.9844 21.8107 68.9451 21.678 68.9059 21.5453C68.831 19.118 68.749 16.7121 68.6528 14.3241C68.5636 11.9362 68.5815 9.5267 68.7098 7.08138C68.7669 6.93438 68.8667 6.81964 69.0129 6.74793C69.1662 6.67263 69.3124 6.63319 69.4586 6.63319H73.1631C73.3093 6.63319 73.4519 6.69056 73.5909 6.80171C73.7335 6.91645 73.8084 7.04553 73.8298 7.19253L74.4716 18.3865V21.9111C74.4716 21.9864 74.4324 22.0832 74.3575 22.2087C74.2862 22.327 74.2006 22.3915 74.1115 22.3915H69.5477C69.5299 22.3915 69.4871 22.3808 69.4193 22.3628C69.3587 22.3449 69.3053 22.3234 69.266 22.3055L69.2696 22.2983Z" fill="#21A8E1"/>
<path d="M76.8961 22.4883C76.6929 22.3198 76.5824 22.076 76.5645 21.7641C76.5467 21.4485 76.5253 21.1868 76.5075 20.9824C76.5075 20.7781 76.511 20.4661 76.5217 20.0466C76.5324 19.6271 76.536 19.1538 76.536 18.6339V15.3281C76.536 14.8082 76.5324 14.3349 76.5217 13.9154C76.511 13.4995 76.5075 13.1839 76.5075 12.9796C76.5075 12.8326 76.4968 12.517 76.479 12.0294C76.4611 11.5418 76.4362 10.9824 76.4076 10.3478C76.3827 9.71674 76.3542 9.03549 76.3256 8.30763C76.2971 7.57619 76.2686 6.89853 76.2401 6.26389C76.2115 5.62925 76.1937 5.06991 76.1723 4.58228C76.1545 4.09824 76.1438 3.77913 76.1438 3.63212V1.22266C76.2008 1.01828 76.3007 0.892789 76.4469 0.846178C76.6002 0.799566 76.7749 0.770882 76.9781 0.749369C76.9959 0.749369 77.1243 0.745783 77.3668 0.735027C77.6056 0.72427 77.8873 0.717099 78.2118 0.706343C78.5398 0.695586 78.8571 0.688415 79.1709 0.677658C79.4882 0.666902 79.7485 0.663316 79.9553 0.663316C80.6006 0.623876 80.9999 0.907131 81.1461 1.50233C81.221 2.6963 81.2495 3.90821 81.2317 5.14162C81.2495 5.43922 81.2887 5.95912 81.3422 6.70849C81.3993 7.45428 81.4528 8.24668 81.4991 9.08569C81.5455 9.9247 81.5882 10.7243 81.6382 11.4772C81.6845 12.2302 81.7095 12.7573 81.7095 13.0584C81.7273 13.4313 81.738 13.9943 81.738 14.7472V19.1968C81.738 19.8422 81.7273 20.2474 81.7095 20.4159L81.6239 21.8143C81.6061 21.9613 81.5134 22.0832 81.3422 22.1764C81.1747 22.266 81.0463 22.3342 80.9572 22.3736C80.3653 22.4489 79.7235 22.5063 79.0354 22.5565C78.3508 22.6031 77.6912 22.6103 77.0601 22.5708C77.0423 22.5708 77.0138 22.5565 76.9781 22.5278C76.9389 22.4991 76.9104 22.4848 76.8925 22.4848" fill="#21A8E1"/>
<path d="M84.2124 22.4883C84.0092 22.3198 83.8986 22.076 83.8808 21.7641C83.863 21.4485 83.8416 21.1868 83.8238 20.9824C83.8238 20.7781 83.8273 20.4661 83.838 20.0466C83.8487 19.6271 83.8523 19.1538 83.8523 18.6339V15.3281C83.8523 14.8082 83.8487 14.3349 83.838 13.9154C83.8273 13.4995 83.8238 13.1839 83.8238 12.9796C83.8238 12.8326 83.8131 12.517 83.7952 12.0294C83.7774 11.5418 83.7525 10.9824 83.7239 10.3478C83.699 9.71674 83.6704 9.03549 83.6419 8.30763C83.6134 7.57619 83.5849 6.89853 83.5564 6.26389C83.5278 5.62925 83.51 5.06991 83.4886 4.58228C83.4708 4.09824 83.4601 3.77913 83.4601 3.63212V1.22266C83.5171 1.01828 83.617 0.892789 83.7631 0.846178C83.9165 0.799566 84.0912 0.770882 84.2944 0.749369C84.3122 0.749369 84.4406 0.745783 84.683 0.735027C84.9219 0.72427 85.2036 0.717099 85.528 0.706343C85.8561 0.695586 86.1734 0.688415 86.4872 0.677658C86.8045 0.666902 87.0648 0.663316 87.2716 0.663316C87.9169 0.623876 88.3162 0.907131 88.4624 1.50233C88.5373 2.6963 88.5658 3.90821 88.548 5.14162C88.5658 5.43922 88.605 5.95912 88.6585 6.70849C88.7156 7.45428 88.769 8.24668 88.8154 9.08569C88.8617 9.9247 88.9045 10.7243 88.9544 11.4772C89.0008 12.2302 89.0258 12.7573 89.0258 13.0584C89.0436 13.4313 89.0543 13.9943 89.0543 14.7472V19.1968C89.0543 19.8422 89.0436 20.2474 89.0258 20.4159L88.9402 21.8143C88.9224 21.9613 88.8297 22.0832 88.6585 22.1764C88.4909 22.266 88.3626 22.3342 88.2734 22.3736C87.6816 22.4489 87.0398 22.5063 86.3517 22.5565C85.6671 22.6031 85.0075 22.6103 84.3764 22.5708C84.3586 22.5708 84.3301 22.5565 84.2944 22.5278C84.2552 22.4991 84.2267 22.4848 84.2088 22.4848" fill="#21A8E1"/>
<path d="M98.763 17.9276C99.0233 18.0423 99.3049 18.0961 99.5973 18.0853C99.8968 18.0746 100.171 18.0244 100.432 17.9276C101.287 17.6515 101.929 17.1388 102.364 16.4037C102.803 15.6687 103.034 14.8835 103.063 14.0552C103.091 13.2234 102.91 12.4274 102.517 11.6637C102.129 10.9 101.53 10.337 100.713 9.98207C99.936 9.64862 99.2301 9.56257 98.6097 9.73467C97.9893 9.90319 97.4758 10.2187 97.0658 10.6848C96.6558 11.1474 96.3741 11.7246 96.203 12.4023C96.0354 13.0835 96.0069 13.772 96.121 14.4747C96.2315 15.1703 96.5025 15.8372 96.9268 16.4611C97.3546 17.085 97.9607 17.5726 98.7594 17.9276M103.106 22.682C103.066 22.664 103.002 22.6246 102.91 22.5565C102.813 22.4883 102.756 22.4417 102.738 22.4023C102.706 22.3449 102.681 22.2158 102.671 22.0115C102.66 21.8071 102.617 21.6565 102.542 21.5633C102.542 21.5633 102.446 21.6099 102.254 21.7031C102.057 21.7999 101.829 21.9003 101.569 22.0151C101.312 22.1262 101.059 22.2338 100.82 22.3342C100.578 22.4382 100.41 22.4883 100.321 22.4883H97.647C97.6078 22.4704 97.5329 22.4561 97.4081 22.4346C97.2905 22.4166 97.2084 22.4059 97.1692 22.4059C97.1371 22.4059 97.0694 22.4023 96.9731 22.3915C96.884 22.3808 96.7735 22.3664 96.6558 22.3485C96.5381 22.3306 96.424 22.3162 96.3242 22.3055C96.2208 22.2947 96.1638 22.2911 96.1424 22.2911C96.121 22.2911 96.0532 22.2732 95.932 22.223C95.8072 22.1764 95.7324 22.1406 95.6931 22.1226C95.5969 22.0653 95.44 21.9828 95.2189 21.8681C94.9943 21.7569 94.7661 21.6386 94.5272 21.5059C94.2848 21.3768 94.053 21.2585 93.8284 21.1438C93.6038 21.0326 93.4469 20.9466 93.3578 20.8892C92.6304 20.3514 92.0171 19.663 91.5215 18.8204C91.0224 17.9814 90.7728 17.0886 90.7728 16.1312C90.7336 15.5145 90.6979 15.0484 90.6587 14.7185C90.6266 14.3923 90.6052 14.1162 90.6052 13.8975C90.6052 13.6787 90.6231 13.4636 90.6587 13.2664C90.6979 13.0692 90.7621 12.7824 90.8548 12.413C91.1721 11.0721 91.6428 9.90678 92.2739 8.91717C92.9049 7.92757 93.8213 7.07063 95.0264 6.34277C95.251 6.21011 95.5469 6.05593 95.9177 5.88024C96.2886 5.70455 96.6094 5.61133 96.8911 5.61133C97.3368 5.42488 97.7825 5.32449 98.2389 5.30656C98.6952 5.28863 99.1302 5.3209 99.5438 5.40337C99.961 5.48942 100.335 5.5934 100.674 5.72965C101.006 5.85873 101.259 5.96988 101.423 6.0631C101.48 6.08103 101.555 6.12047 101.662 6.17425C101.762 6.23162 101.876 6.28899 101.993 6.34636C102.111 6.40014 102.225 6.45751 102.325 6.51488C102.428 6.56866 102.5 6.60452 102.535 6.62603C102.574 6.32843 102.624 6.10971 102.692 5.96629C102.753 5.82646 102.924 5.71172 103.206 5.6185C103.295 5.60057 103.487 5.58982 103.762 5.58982C104.036 5.58982 104.229 5.60057 104.318 5.6185C104.393 5.6185 104.532 5.62209 104.735 5.63284C104.938 5.6436 105.149 5.65077 105.363 5.66153C105.577 5.67228 105.776 5.67945 105.962 5.69021C106.147 5.70097 106.275 5.70455 106.35 5.70455C106.461 5.70455 106.611 5.70814 106.796 5.71889C106.981 5.72965 107.163 5.75833 107.338 5.80136C107.513 5.84797 107.666 5.92685 107.798 6.02725C107.926 6.13123 108.001 6.27465 108.022 6.4611C108.055 7.76622 108.033 9.06776 107.937 10.3621C107.841 11.6601 107.809 12.9688 107.826 14.2954C107.826 14.4066 107.83 14.6217 107.841 14.9337C107.844 15.2528 107.855 15.6257 107.866 16.0559C107.876 16.4862 107.88 16.9344 107.88 17.4113C107.88 17.8881 107.883 18.3363 107.894 18.7666C107.905 19.1968 107.912 19.5733 107.923 19.8996C107.933 20.2295 107.937 20.441 107.937 20.5307C107.937 20.6992 107.94 20.8892 107.951 21.1043C107.962 21.3195 107.951 21.5346 107.923 21.7497C107.894 21.9649 107.837 22.1513 107.741 22.3091C107.652 22.4668 107.488 22.5565 107.267 22.578C106.582 22.6676 105.89 22.7357 105.195 22.7752C104.496 22.8146 103.797 22.7859 103.095 22.6891L103.106 22.682Z" fill="#21A8E1"/>
<path d="M49.5206 44.4891C49.3352 44.3923 49.2389 44.2201 49.2318 43.9727C49.2211 43.7182 49.1997 43.5174 49.1605 43.3704V40.7386L48.6863 29.3797C48.6863 29.2506 48.6756 29.0785 48.6613 28.8741C48.6435 28.6734 48.6756 28.4905 48.7718 28.3435C48.8289 28.2323 49 28.1319 49.2853 28.0531C49.5741 27.967 49.9057 27.8989 50.2872 27.8559C50.6687 27.8092 51.0716 27.7877 51.4994 27.7985C51.9273 27.8092 52.3123 27.8523 52.6546 27.924C53.0005 27.9993 53.2714 28.114 53.4747 28.2718C53.6779 28.4331 53.7563 28.6447 53.6993 28.9028C54.4195 28.5479 55.1255 28.2503 55.7993 27.9957C56.4768 27.7411 57.2327 27.6479 58.0705 27.6981C58.2952 27.716 58.5875 27.7841 58.9583 27.8953C59.3327 28.01 59.7071 28.1535 60.0886 28.3291C60.4701 28.5048 60.8338 28.72 61.1867 28.9745C61.5397 29.2291 61.8143 29.4873 62.0068 29.7562C62.2029 30.0287 62.2885 30.3084 62.2599 30.6095C62.2314 30.9071 62.0425 31.2047 61.6895 31.5023C61.6146 31.5597 61.4934 31.6565 61.3294 31.7856C61.1582 31.9147 60.9835 32.0545 60.7981 32.2051C60.6127 32.3521 60.438 32.4919 60.2704 32.6246C60.1028 32.7537 59.9816 32.8433 59.9103 32.9007C59.5217 33.2198 59.2044 33.4026 58.9655 33.4457C58.723 33.4923 58.4948 33.4779 58.2809 33.4062C58.067 33.3309 57.8424 33.2305 57.6106 33.0943C57.3824 32.9652 57.0686 32.8684 56.68 32.8182C56.3663 32.7788 56.1202 32.7716 55.9455 32.7895C55.7708 32.8075 55.6175 32.8612 55.4999 32.958C55.3822 33.0477 55.261 33.1768 55.154 33.3345C55.0399 33.4923 54.9009 33.6931 54.7368 33.9369C54.4053 34.3851 54.2056 34.8333 54.1378 35.2922C54.0701 35.7512 54.0238 36.2567 53.9845 36.8161C53.9845 36.9308 53.981 37.1172 53.9703 37.379C53.9596 37.6371 53.956 37.9096 53.956 38.1893C53.956 38.469 53.9596 38.7271 53.9703 38.971C53.981 39.2112 53.9845 39.3725 53.9845 39.4442C54.0024 39.6128 54.0273 39.9139 54.0665 40.3406C54.1058 40.7709 54.1485 41.2191 54.1949 41.6959C54.2377 42.1728 54.284 42.6174 54.3339 43.0369C54.3803 43.4564 54.4195 43.754 54.4587 43.919C54.4766 44.0086 54.4694 44.1305 54.4302 44.2668C54.3981 44.4066 54.3126 44.4783 54.1842 44.4783C52.7545 44.5751 51.3247 44.5966 49.895 44.5644C49.8629 44.5644 49.7987 44.5536 49.7131 44.5357C49.6311 44.5177 49.5705 44.4962 49.5313 44.4783" fill="#8BBF36"/>
<path d="M69.0272 32.6497C68.9879 32.6676 68.938 32.7106 68.8738 32.7788C68.8061 32.8469 68.7348 32.9186 68.6492 33.0047C68.5636 33.0871 68.4923 33.166 68.4246 33.2377C68.3569 33.313 68.3212 33.3632 68.2998 33.3811C70.2644 33.4206 72.2396 33.3919 74.2256 33.2951V33.0979L73.6694 32.5385C73.3699 32.2768 73.0205 32.0904 72.6104 31.9792C72.2004 31.8645 71.7797 31.8179 71.3411 31.825C70.9097 31.8358 70.4854 31.9111 70.079 32.0581C69.6689 32.2123 69.3195 32.4059 69.02 32.6461M69.3017 44.6791C68.0573 44.4353 66.9093 43.9548 65.8503 43.2234C64.7914 42.4991 63.9428 41.5848 63.2903 40.484C62.8054 39.645 62.4988 38.7881 62.3598 37.9096C62.2171 37.0312 62.1886 36.1205 62.2599 35.1703C62.2778 35.0556 62.3277 34.8727 62.4025 34.6253C62.4739 34.3707 62.5487 34.0982 62.62 33.815C62.6949 33.5246 62.7734 33.2485 62.8447 32.9903C62.9195 32.7286 62.9766 32.5493 63.0122 32.4561C63.2939 31.488 63.7681 30.6382 64.4313 29.896C65.1016 29.161 65.8717 28.5622 66.7453 28.1068C67.6152 27.6515 68.5494 27.3431 69.5513 27.1854C70.5532 27.0276 71.5265 27.0419 72.4749 27.2284C73.7514 27.4865 74.9244 28.0244 75.994 28.8383C77.0566 29.6486 77.8873 30.6418 78.4827 31.8178C78.743 32.3198 78.9427 32.872 79.0817 33.4779C79.2243 34.0839 79.2707 34.6755 79.235 35.2528C79.2208 35.554 79.1923 35.8336 79.153 36.1061C79.1138 36.3786 79.0389 36.6153 78.9284 36.8232C78.8179 37.0276 78.6574 37.1997 78.4542 37.3395C78.251 37.4794 77.9836 37.5583 77.6484 37.5798C77.5771 37.5798 77.4452 37.5905 77.2598 37.6085C77.0744 37.6264 76.8854 37.6371 76.6893 37.6479C76.4932 37.6587 76.3149 37.6658 76.1474 37.6766C75.9798 37.6873 75.8657 37.6909 75.8158 37.6909H67.2729L67.0769 37.777C67.0947 37.8881 67.1232 37.9921 67.1624 38.0817C67.1767 38.1786 67.1945 38.2574 67.2159 38.3363C67.2337 38.4116 67.2551 38.4762 67.2729 38.5335C67.4013 38.9638 67.7008 39.3403 68.1607 39.6665C68.6278 39.9964 69.0735 40.2044 69.5014 40.2976C69.9435 40.337 70.4854 40.3514 71.1165 40.3406C71.744 40.3299 72.2931 40.2223 72.7531 40.0143C72.8101 40 72.885 39.9677 72.9777 39.9175C73.0739 39.8709 73.1666 39.8171 73.2736 39.7634C73.3734 39.706 73.4626 39.6594 73.5339 39.6199C73.6088 39.5877 73.6587 39.559 73.6765 39.5375C73.8441 39.4227 74.0081 39.2972 74.1757 39.161C74.3432 39.0176 74.5073 38.8885 74.6748 38.7702C74.846 38.6447 75.0207 38.555 75.2061 38.4869C75.3915 38.4188 75.5947 38.4009 75.8193 38.4188C75.8906 38.4726 76.0333 38.5801 76.2365 38.7379C76.4397 38.8957 76.6537 39.057 76.8711 39.2255C77.0958 39.3976 77.3097 39.5554 77.5129 39.7024C77.7162 39.8494 77.8552 39.957 77.9301 40.0072C78.1904 40.2115 78.3437 40.4482 78.39 40.7099C78.4364 40.9717 78.3472 41.2298 78.1226 41.4916C77.734 41.8824 77.3525 42.2732 76.9817 42.6676C76.6109 43.0584 76.2187 43.4062 75.7979 43.7182C75.3808 44.0229 74.928 44.2703 74.4502 44.4568C73.9653 44.6432 73.4305 44.7472 72.8351 44.7687H70.1324C70.079 44.7687 69.9435 44.758 69.7296 44.74C69.5192 44.7221 69.373 44.7006 69.3017 44.6827V44.6791Z" fill="#8BBF36"/>
<path d="M104.225 39.2542C104.525 39.4084 104.803 39.4658 105.074 39.4371C105.345 39.4084 105.644 39.3797 105.976 39.3403C106.625 39.265 107.153 39.0104 107.563 38.573C107.973 38.1319 108.261 37.6264 108.425 37.0455C108.593 36.4683 108.654 35.8623 108.607 35.2313C108.561 34.5966 108.397 34.0373 108.122 33.5497C107.969 33.2879 107.766 33.0584 107.509 32.8612C107.249 32.664 106.989 32.4919 106.732 32.3449C106.618 32.2696 106.472 32.1907 106.286 32.1047C106.101 32.0222 105.933 31.9792 105.783 31.9792C105.73 31.9792 105.63 31.9756 105.495 31.9649C105.356 31.9541 105.206 31.9505 105.049 31.9505C104.892 31.9505 104.746 31.9541 104.603 31.9649C104.464 31.9756 104.371 31.9792 104.314 31.9792C104.015 31.9971 103.68 32.0903 103.298 32.2553C102.917 32.4274 102.635 32.6389 102.45 32.9007C102.175 33.2915 102.008 33.7074 101.951 34.1484C101.893 34.5895 101.876 35.0376 101.893 35.5038C101.893 35.6328 101.918 35.8193 101.965 36.0488C102.011 36.2818 102.068 36.522 102.147 36.7659C102.218 37.0097 102.3 37.2356 102.386 37.4471C102.468 37.6622 102.557 37.8236 102.646 37.9383C102.906 38.2359 103.149 38.4869 103.373 38.6913C103.598 38.8957 103.883 39.0821 104.232 39.2506M103.484 44.1771C102.578 44.0229 101.737 43.7361 100.966 43.3094C100.196 42.8792 99.5189 42.3485 98.9342 41.7139C98.3494 41.0792 97.8574 40.3621 97.4616 39.559C97.0623 38.7558 96.777 37.9061 96.613 37.0133C96.5168 36.5256 96.4811 36.0165 96.4847 35.4715C96.4954 34.9337 96.5096 34.446 96.5275 34.0194C96.6416 33.4923 96.7984 32.958 97.0017 32.4095C97.2049 31.8573 97.4616 31.3302 97.7647 30.8283C98.0677 30.3227 98.4243 29.8602 98.8236 29.4442C99.223 29.0247 99.6579 28.6805 100.143 28.4224C100.403 28.2682 100.713 28.1355 101.073 28.0172C101.434 27.8917 101.747 27.7483 102.008 27.5834C103.787 27.0061 105.395 26.8196 106.832 27.024C108.272 27.2284 109.481 27.7483 110.465 28.5909C111.449 29.4299 112.187 30.545 112.693 31.9326C113.192 33.3238 113.396 34.9229 113.299 36.73C113.228 38.2216 112.946 39.4944 112.469 40.5486C111.984 41.5991 111.313 42.4346 110.465 43.0513C109.609 43.668 108.593 44.0731 107.416 44.2703C106.24 44.4675 104.928 44.4317 103.48 44.1735L103.484 44.1771Z" fill="#8BBF36"/>
<path d="M124.509 44.2058C124.491 44.1735 124.463 44.1341 124.424 44.0947C124.384 44.0552 124.366 44.0265 124.366 44.0086V35.5325C124.366 35.5145 124.352 35.4428 124.324 35.3209C124.299 35.2026 124.27 35.0627 124.242 34.9157C124.213 34.7687 124.174 34.611 124.128 34.4389C124.085 34.2704 124.053 34.1413 124.031 34.048C123.992 33.919 123.946 33.7576 123.892 33.5604C123.835 33.3632 123.76 33.1768 123.668 33.0011C123.571 32.8254 123.468 32.6605 123.343 32.5242C123.226 32.3844 123.083 32.2947 122.915 32.2553H121.717C121.4 32.2732 121.14 32.3987 120.926 32.6246C120.712 32.8433 120.53 33.1086 120.38 33.4062C120.234 33.7038 120.12 34.0158 120.034 34.3421C119.952 34.6683 119.892 34.9444 119.853 35.1667C119.628 36.6762 119.493 38.1069 119.435 39.4586C119.378 40.8103 119.368 42.2696 119.407 43.8365C119.389 43.9333 119.339 44.0481 119.254 44.1843C119.168 44.3277 119.065 44.3958 118.936 44.3958H115.792C115.638 44.3958 115.503 44.3385 115.374 44.213C115.242 44.0947 115.16 43.9692 115.121 43.8365C115.064 42.682 115.032 41.4521 115.021 40.1578C115.011 38.8598 115.018 37.6587 115.036 36.5615C115.036 36.1312 115.039 35.6293 115.05 35.0628C115.061 34.4962 115.075 33.8975 115.093 33.2736C115.111 32.6497 115.125 32.0366 115.136 31.4306C115.146 30.8247 115.16 30.2761 115.178 29.792C115.196 29.3044 115.21 28.9136 115.218 28.616C115.228 28.3148 115.232 28.1678 115.232 28.1678L115.513 27.8845C115.513 27.8666 115.617 27.8523 115.831 27.8308C116.045 27.8128 116.216 27.7913 116.348 27.7734H118.655C118.84 27.8128 118.986 27.8487 119.1 27.8845C119.211 27.924 119.314 27.9706 119.403 28.028C119.5 28.0818 119.585 28.1535 119.671 28.2395C119.756 28.322 119.853 28.4224 119.96 28.5299H120.045C120.491 28.3041 120.937 28.0853 121.379 27.8702C121.824 27.6587 122.309 27.5296 122.826 27.4937H125.055C125.718 27.6479 126.313 27.8953 126.834 28.2539C127.351 28.6088 127.793 29.0355 128.153 29.5375C128.513 30.043 128.809 30.6024 129.03 31.2191C129.255 31.8358 129.412 32.4561 129.501 33.0907C129.519 33.4815 129.544 33.901 129.572 34.3528C129.601 34.801 129.626 35.2564 129.643 35.7225C129.658 36.1922 129.658 36.6547 129.629 37.1208C129.601 37.5905 129.54 38.0136 129.447 38.4116V43.9226C129.447 44.0337 129.362 44.1198 129.194 44.1771C129.027 44.2309 128.912 44.2668 128.855 44.2883C128.21 44.4174 127.558 44.4891 126.909 44.4998C126.263 44.5106 125.611 44.5034 124.962 44.4855L124.573 44.2883L124.491 44.2022L124.509 44.2058Z" fill="#8BBF36"/>
<path d="M137.33 44.403C136.739 44.2739 136.157 44.0409 135.594 43.7074C135.027 43.374 134.521 43.0047 134.079 42.6138C133.983 42.5421 133.876 42.4417 133.74 42.3234C133.612 42.1979 133.483 42.0832 133.351 41.9756C133.223 41.8609 133.113 41.7605 133.02 41.6637C132.931 41.574 132.881 41.5167 132.881 41.4952L132.407 40.3765C132.407 40.3586 132.367 40.208 132.296 39.9426C132.221 39.6701 132.143 39.3546 132.057 38.9925C131.972 38.6232 131.886 38.2539 131.79 37.8702C131.701 37.4866 131.622 37.1782 131.565 36.9344C131.476 36.5221 131.437 36.1133 131.455 35.701C131.472 35.2886 131.415 34.8906 131.287 34.4962V28.8168C131.287 28.4618 131.341 28.1857 131.44 27.9921C131.544 27.7949 131.686 27.6623 131.872 27.587C132.057 27.5117 132.282 27.4722 132.542 27.4722C132.802 27.4722 133.098 27.483 133.43 27.5009C133.526 27.5009 133.701 27.5152 133.958 27.5439C134.218 27.5726 134.489 27.6013 134.763 27.63C135.045 27.6587 135.309 27.6838 135.569 27.7124C135.829 27.7411 136.008 27.7662 136.1 27.7842C136.339 27.8415 136.496 27.9706 136.571 28.175V31.9792C136.589 32.8182 136.603 33.7074 136.614 34.6468C136.625 35.5934 136.728 36.4719 136.931 37.2929C137.099 37.9276 137.388 38.4116 137.794 38.7343C138.204 39.0606 138.635 39.2255 139.085 39.2363C139.541 39.247 139.962 39.0929 140.354 38.7773C140.743 38.4582 140.996 37.967 141.103 37.2929C141.121 37.2212 141.146 37.1029 141.174 36.9451C141.203 36.7874 141.217 36.687 141.217 36.6475V33.6536C141.217 33.5246 141.213 33.3094 141.203 33.0154C141.192 32.7142 141.178 32.4131 141.16 32.1047C141.142 31.7999 141.128 31.5167 141.117 31.2657C141.106 31.0183 141.103 30.8498 141.103 30.7781C141.085 30.5342 141.049 30.2761 141.006 30.0108C140.96 29.7383 140.921 29.4658 140.892 29.2004C140.864 28.9279 140.853 28.6626 140.864 28.3901C140.875 28.1176 140.924 27.863 141.021 27.6228C141.074 27.4901 141.192 27.3933 141.367 27.3252C141.541 27.2643 141.737 27.2248 141.951 27.2141C142.165 27.2033 142.376 27.2033 142.579 27.2141C142.782 27.2248 142.939 27.2284 143.049 27.2284C143.067 27.2284 143.135 27.2392 143.246 27.2571C143.36 27.275 143.477 27.2858 143.606 27.2965C143.738 27.3073 143.852 27.3145 143.959 27.3252C144.058 27.336 144.13 27.3396 144.169 27.3396H146.226C146.487 27.3575 146.672 27.4794 146.786 27.7017C146.897 27.9276 146.954 28.1427 146.954 28.3471C147.025 29.7849 146.993 31.2263 146.854 32.6676C146.715 34.1162 146.536 35.536 146.312 36.938C146.216 37.4399 146.116 37.9921 146.002 38.5909C145.891 39.1861 145.734 39.7741 145.531 40.3514C145.328 40.9287 145.071 41.4737 144.768 41.99C144.458 42.4991 144.076 42.9365 143.613 43.2879C143.185 43.6034 142.711 43.8616 142.194 44.0552C141.673 44.2524 141.135 44.3887 140.579 44.4747C140.022 44.5608 139.463 44.5895 138.906 44.5751C138.35 44.5572 137.823 44.4998 137.32 44.403" fill="#8BBF36"/>
<path fill-rule="evenodd" clip-rule="evenodd" d="M35.3479 41.0613C40.6569 37.0921 43.9941 30.6454 43.7196 23.4923C43.6304 21.1509 43.1669 18.9172 42.3861 16.8447C41.9868 21.1043 41.6267 25.5611 40.3395 29.5267C39.1166 33.5963 37.5228 37.4435 35.3479 41.0613Z" fill="#FFCE02"/>
<path fill-rule="evenodd" clip-rule="evenodd" d="M9.45917 40.1578C12.907 43.1337 17.3246 44.9767 22.1379 45.1631C27.9282 39.6307 33.6757 33.4923 36.7135 25.995C38.1218 22.6102 39.8047 17.9347 40.6069 13.2485C39.7334 11.8322 38.6959 10.5378 37.5228 9.37611C37.2483 16.2997 33.8255 24.152 29.9676 28.01C24.5446 33.3381 17.2604 37.5296 9.46273 40.1613" fill="#FFCE02"/>
<mask id="mask0_12_466" style="mask-type:luminance" maskUnits="userSpaceOnUse" x="9" y="9" width="32" height="37">
<path d="M9.45917 40.1578C12.907 43.1337 17.3246 44.9767 22.1379 45.1631C27.9282 39.6307 33.6757 33.4923 36.7135 25.995C38.1218 22.6102 39.8047 17.9347 40.6069 13.2485C39.7334 11.8322 38.6959 10.5378 37.5228 9.37611C37.2483 16.2997 33.8255 24.152 29.9676 28.01C24.5446 33.3381 17.2604 37.5296 9.46273 40.1613" fill="white"/>
</mask>
<g mask="url(#mask0_12_466)">
<path fill-rule="evenodd" clip-rule="evenodd" d="M11.93 35.8731C12.7109 35.8731 13.342 36.3428 13.342 36.9236C13.342 37.5045 12.7109 37.9742 11.93 37.9742C11.1492 37.9742 10.5181 37.5045 10.5181 36.9236C10.5181 36.3428 11.1492 35.8731 11.93 35.8731Z" fill="#050007"/>
</g>
<path fill-rule="evenodd" clip-rule="evenodd" d="M2.21414 25.389C2.35675 28.1463 3.02706 30.7601 4.12522 33.123C13.948 34.3026 24.1738 29.8853 29.8606 21.151C32.4349 17.3754 34.2248 11.5023 33.6365 6.36787C31.3831 4.99821 28.8445 4.05522 26.1419 3.63213C29.6432 11.9649 26.6767 24.593 15.8342 23.7612C11.5378 23.4457 6.56399 17.8917 9.41278 13.4708C11.3738 10.8426 18.0875 7.87379 17.9913 13.6214C15.8449 11.4701 13.1601 16.0416 14.1905 18.0746C15.8769 20.7243 20.7331 18.9387 22.0915 17.1316C23.6104 15.3173 23.4856 11.972 23.0827 9.7526C22.3304 6.17426 19.5422 4.86913 16.4296 4.43887C10.9495 6.26389 6.50694 10.3048 4.11809 15.4787C5.76176 20.0108 7.66571 24.4676 11.9906 27.0957C8.83875 27.5547 5.39452 26.5687 2.21057 25.3854" fill="#FFCE02"/>
<mask id="mask1_12_466" style="mask-type:luminance" maskUnits="userSpaceOnUse" x="2" y="3" width="32" height="31">
<path d="M2.21414 25.389C2.35675 28.1463 3.02706 30.7601 4.12522 33.123C13.948 34.3026 24.1738 29.8853 29.8606 21.151C32.4349 17.3754 34.2248 11.5023 33.6365 6.36787C31.3831 4.99821 28.8445 4.05522 26.1419 3.63213C29.6432 11.9649 26.6767 24.593 15.8342 23.7612C11.5378 23.4457 6.56399 17.8917 9.41278 13.4708C11.3738 10.8426 18.0875 7.87379 17.9913 13.6214C15.8449 11.4701 13.1601 16.0416 14.1905 18.0746C15.8769 20.7243 20.7331 18.9387 22.0915 17.1316C23.6104 15.3173 23.4856 11.972 23.0827 9.7526C22.3304 6.17426 19.5422 4.86913 16.4296 4.43887C10.9495 6.26389 6.50694 10.3048 4.11809 15.4787C5.76176 20.0108 7.66571 24.4676 11.9906 27.0957C8.83875 27.5547 5.39452 26.5687 2.21057 25.3854" fill="white"/>
</mask>
<g mask="url(#mask1_12_466)">
<path fill-rule="evenodd" clip-rule="evenodd" d="M1.82551 21.8896C2.83453 21.8896 3.65102 22.4525 3.65102 23.1445C3.65102 23.8365 2.83453 24.3994 1.82551 24.3994C0.816488 24.3994 0 23.8365 0 23.1445C0 22.4525 0.816488 21.8896 1.82551 21.8896Z" fill="#050007"/>
</g>
</svg>
